
<svg version="1.0" xmlns="http://www.w3.org/2000/svg"
 width="479.000000pt" height="521.000000pt" viewBox="0 0 479.000000 521.000000"
 preserveAspectRatio="xMidYMid meet">
<g transform="translate(0.000000,521.000000) scale(0.100000,-0.100000)"
fill="#ffffff" stroke="none">
<path d="M886 4477 c-3 -23 -8 -154 -11 -292 -3 -137 -14 -482 -25 -765 -10
-283 -22 -636 -26 -785 l-7 -270 25 30 c13 17 58 80 100 140 41 61 89 130 107
155 17 25 80 116 139 202 59 87 112 157 117 158 6 0 73 -47 150 -104 77 -58
155 -115 173 -128 18 -13 63 -46 100 -73 37 -28 78 -58 92 -67 14 -10 42 -30
62 -45 50 -37 193 -143 228 -168 15 -11 65 -47 110 -80 45 -33 88 -64 95 -69
9 -7 23 -1 46 18 19 15 45 36 59 47 14 11 88 70 165 132 77 62 150 119 161
127 12 8 80 62 150 118 71 57 144 116 163 130 19 15 48 38 65 53 17 14 52 42
77 62 l47 37 88 -115 c49 -64 99 -131 112 -148 41 -58 300 -398 333 -437 l20
-25 -6 155 c-3 85 -15 295 -25 465 -11 171 -24 405 -30 520 -18 357 -62 1060
-67 1065 -3 3 -16 -8 -30 -25 -44 -51 -367 -418 -386 -437 -10 -11 -50 -56
-90 -101 -39 -45 -74 -84 -77 -87 -3 -3 -57 -63 -119 -135 -63 -71 -119 -134
-125 -140 -6 -5 -40 -43 -75 -82 l-63 -73 -408 0 -408 0 -83 92 c-46 50 -95
103 -107 117 -24 27 -108 117 -191 206 -26 28 -121 131 -211 230 -91 99 -192
209 -226 245 -34 36 -81 88 -105 116 -24 28 -52 56 -61 62 -15 10 -17 6 -22
-31z m339 -367 c104 -113 234 -254 289 -314 56 -60 126 -137 156 -170 30 -33
88 -95 129 -138 l74 -78 427 0 c326 0 430 3 441 13 9 6 44 46 80 87 35 41 69
79 75 85 6 5 62 69 125 140 63 72 119 135 125 140 6 6 39 44 75 85 35 41 67
77 70 80 3 3 61 68 129 145 67 77 146 165 175 196 l52 57 7 -116 c3 -64 11
-204 16 -312 5 -107 21 -384 35 -615 38 -650 55 -958 52 -961 -1 -2 -37 43
-79 99 -137 185 -400 532 -413 546 -11 11 -23 5 -71 -34 -87 -70 -154 -122
-311 -247 -78 -62 -214 -171 -303 -243 -175 -140 -228 -181 -247 -191 -7 -3
-42 16 -78 43 -37 26 -79 57 -95 68 -15 11 -116 85 -224 165 -108 80 -207 152
-219 160 -13 8 -68 49 -122 90 -55 41 -124 91 -153 111 -29 20 -63 44 -75 55
-12 10 -34 27 -48 36 l-27 17 -46 -67 c-25 -37 -98 -141 -161 -232 -63 -91
-139 -200 -167 -243 -29 -43 -54 -73 -56 -67 -3 7 1 150 7 319 6 168 16 468
21 666 6 198 15 468 20 600 5 132 10 266 10 298 l0 58 58 -63 c32 -35 144
-155 247 -268z"/>
<path d="M1057 4050 c-3 -30 -11 -140 -17 -245 -6 -104 -20 -331 -31 -503 -11
-173 -19 -337 -17 -364 l3 -51 159 177 c87 98 168 182 180 187 24 10 365 69
402 69 32 0 31 5 -13 54 -80 88 -221 243 -277 305 -33 36 -82 91 -110 122 -45
49 -115 127 -238 264 l-36 39 -5 -54z m192 -210 c47 -52 113 -124 146 -160 79
-88 212 -235 258 -286 l36 -41 -97 -16 c-53 -9 -140 -23 -192 -32 -61 -10 -99
-21 -107 -32 -7 -9 -36 -41 -65 -72 -29 -31 -84 -91 -122 -134 -38 -43 -70
-76 -72 -74 -4 4 12 294 41 747 8 129 15 244 15 255 0 16 7 13 37 -20 20 -22
75 -83 122 -135z"/>
<path d="M3497 4058 c-21 -24 -77 -83 -125 -133 -49 -49 -171 -178 -273 -285
-101 -107 -208 -219 -236 -250 -29 -30 -53 -58 -53 -61 0 -4 35 -10 78 -13 79
-7 288 -32 353 -42 30 -4 45 -16 85 -67 26 -34 51 -66 56 -72 4 -5 29 -37 56
-70 26 -33 77 -97 111 -143 35 -46 65 -82 67 -80 1 2 -8 172 -21 378 -13 206
-29 483 -36 615 -6 132 -15 246 -18 253 -5 9 -19 -1 -44 -30z m37 -468 c14
-223 28 -454 31 -515 l6 -110 -24 25 c-25 24 -50 56 -184 232 l-67 87 -75 6
c-42 4 -136 15 -208 24 l-133 16 62 65 c34 36 114 119 177 185 64 67 177 185
251 264 74 78 136 139 137 134 1 -4 14 -190 27 -413z"/>
<path d="M1479 2598 c-29 -35 -58 -66 -64 -70 -6 -4 69 -87 178 -195 l187
-188 0 -641 0 -641 112 -104 c62 -57 124 -116 138 -132 l24 -27 246 0 245 1
143 137 142 137 0 650 0 651 98 91 c53 51 134 127 180 170 l83 78 -62 73 c-53
63 -64 71 -78 60 -20 -16 -218 -186 -247 -213 -12 -11 -58 -51 -103 -90 l-80
-70 -1 -661 0 -661 -80 -72 c-62 -54 -88 -71 -110 -71 -27 0 -30 3 -30 32 0
18 19 66 45 115 25 45 45 85 45 88 0 3 -85 5 -190 5 -104 0 -190 -2 -190 -4 0
-2 20 -40 45 -84 30 -54 45 -92 45 -116 0 -33 -3 -36 -28 -36 -21 0 -46 19
-110 83 l-82 82 0 652 c0 651 0 652 -21 667 -12 8 -55 45 -98 84 -124 112
-319 282 -324 282 -2 0 -28 -28 -58 -62z m106 -26 c23 -20 90 -80 150 -132 60
-52 133 -117 162 -144 l53 -49 0 -651 0 -651 89 -88 89 -87 56 0 56 0 0 56 c0
44 -7 68 -34 120 l-34 64 130 0 130 0 -36 -64 c-29 -52 -36 -75 -36 -120 l0
-56 58 0 57 0 93 88 92 87 0 657 0 657 200 175 201 175 34 -38 c19 -21 35 -43
35 -48 0 -10 -55 -65 -247 -248 l-93 -88 0 -651 0 -651 -131 -123 -130 -122
-229 0 -228 0 -94 89 c-51 49 -110 103 -130 122 l-38 33 0 645 0 646 -170 169
c-94 94 -170 174 -170 179 0 10 61 85 70 86 3 0 23 -16 45 -37z"/>
<path d="M804 2085 c3 -82 9 -187 12 -233 l6 -83 186 -152 c231 -190 392 -322
561 -459 72 -60 134 -108 136 -108 3 0 5 63 5 139 l0 139 -52 44 c-29 25 -145
120 -258 213 -354 292 -385 318 -394 334 -5 9 -33 54 -64 101 -30 47 -71 110
-91 140 -19 30 -39 60 -44 65 -6 6 -7 -51 -3 -140z m136 -130 c48 -76 72 -101
192 -198 75 -62 227 -186 337 -277 l201 -165 1 -65 c0 -36 2 -77 3 -92 2 -16
0 -28 -5 -28 -4 0 -44 30 -89 68 -46 37 -138 112 -205 167 -67 55 -213 174
-324 265 l-201 165 0 70 c0 39 -3 108 -6 155 l-6 85 23 -32 c13 -17 49 -71 79
-118z"/>
<path d="M3744 2177 c-135 -226 -186 -303 -220 -330 -22 -17 -115 -95 -209
-172 -93 -78 -232 -192 -308 -255 l-138 -114 5 -40 c3 -23 8 -81 12 -129 3
-48 9 -87 14 -85 7 3 512 432 543 461 6 7 59 53 117 102 58 50 121 104 140
122 19 17 47 41 63 53 l27 21 0 210 c0 115 -3 209 -7 209 -5 0 -22 -24 -39
-53z m-2 -221 c0 -68 -4 -131 -9 -138 -4 -8 -102 -95 -218 -193 -115 -99 -255
-218 -309 -265 -219 -188 -270 -229 -277 -222 -4 4 -9 41 -11 82 l-5 75 170
140 c94 77 180 148 191 157 12 10 89 74 171 142 147 122 152 127 220 240 38
63 71 113 74 111 2 -3 4 -61 3 -129z"/>
</g>
</svg>
